<?xml version="1.0" standalone="no"?>
<!DOCTYPE svg PUBLIC "-//W3C//DTD SVG 20010904//EN"
 "http://www.w3.org/TR/2001/REC-SVG-20010904/DTD/svg10.dtd">
<svg version="1.0" xmlns="http://www.w3.org/2000/svg"
 width="574.000000pt" height="429.000000pt" viewBox="0 0 574.000000 429.000000"
 preserveAspectRatio="xMidYMid meet">

<g transform="translate(0.000000,429.000000) scale(0.100000,-0.100000)"
fill="#000000" stroke="none">
<path d="M4750 3440 l0 -140 140 0 140 0 0 140 0 140 -140 0 -140 0 0 -140z"/>
<path d="M4030 3345 l0 -95 95 0 95 0 0 95 0 95 -95 0 -95 0 0 -95z"/>
<path d="M4000 2955 l0 -115 115 0 115 0 0 115 0 115 -115 0 -115 0 0 -115z"/>
<path d="M3480 2833 l0 -138 140 3 140 3 0 135 0 134 -140 0 -140 0 0 -137z"/>
<path d="M4470 2720 l0 -120 -240 0 -240 0 0 -120 0 -120 240 0 240 0 0 120 0
120 115 0 115 0 0 120 0 120 -115 0 -115 0 0 -120z"/>
<path d="M4840 2695 l0 -95 95 0 95 0 0 95 0 95 -95 0 -95 0 0 -95z"/>
<path d="M3500 2395 l0 -75 75 0 75 0 0 75 0 75 -75 0 -75 0 0 -75z"/>
<path d="M1011 2129 c-116 -20 -218 -95 -268 -198 -23 -48 -27 -69 -28 -146 0
-82 3 -96 33 -157 59 -120 164 -188 303 -196 56 -3 92 0 134 13 56 18 155 80
162 102 3 7 -14 32 -37 57 l-42 46 -43 -30 c-90 -62 -192 -64 -267 -7 -106 82
-116 229 -22 323 84 84 201 84 300 1 l31 -26 42 51 c22 28 41 55 41 59 0 15
-80 68 -134 87 -66 25 -137 32 -205 21z"/>
<path d="M1790 2085 l0 -55 250 0 250 0 0 55 0 55 -250 0 -250 0 0 -55z"/>
<path d="M3960 2129 c-62 -12 -131 -58 -158 -104 -19 -33 -22 -51 -19 -102 5
-106 48 -143 223 -198 124 -39 152 -61 140 -111 -19 -73 -171 -64 -298 18 -27
17 -50 29 -52 27 -15 -17 -56 -114 -53 -123 3 -7 32 -26 64 -44 193 -103 419
-74 490 62 9 17 16 55 16 86 0 111 -51 159 -223 210 -109 33 -140 54 -140 95
0 24 6 38 19 45 35 18 117 11 188 -16 37 -14 75 -28 84 -30 12 -4 23 11 43 57
14 34 25 63 24 64 -20 17 -104 49 -157 61 -73 15 -124 16 -191 3z"/>
<path d="M4520 2020 l0 -120 120 0 120 0 0 120 0 120 -120 0 -120 0 0 -120z"/>
<path d="M2710 1780 l0 -350 75 0 75 0 2 223 3 222 168 -222 167 -223 70 0 70
0 0 350 0 350 -75 0 -75 0 -2 -219 -3 -219 -165 219 -165 219 -72 0 -73 0 0
-350z"/>
<path d="M1790 1785 l0 -55 250 0 250 0 0 55 0 55 -250 0 -250 0 0 -55z"/>
<path d="M1790 1475 l0 -55 250 0 250 0 0 55 0 55 -250 0 -250 0 0 -55z"/>
<path d="M730 1160 c-11 -11 -20 -29 -20 -40 0 -44 61 -75 100 -50 19 12 6 24
-28 25 -22 0 -27 5 -27 25 0 20 5 25 27 25 34 1 47 13 28 25 -25 16 -59 11
-80 -10z"/>
<path d="M860 1120 l0 -60 50 0 c38 0 50 4 50 15 0 10 -10 15 -30 15 -16 0
-30 5 -30 10 0 6 11 10 25 10 14 0 25 5 25 10 0 6 -11 10 -25 10 -14 0 -25 5
-25 10 0 6 14 10 30 10 20 0 30 5 30 15 0 11 -12 15 -50 15 l-50 0 0 -60z"/>
<path d="M1000 1120 c0 -47 3 -60 15 -60 10 0 15 10 15 33 l1 32 28 -32 c41
-48 51 -43 51 27 0 47 -3 60 -15 60 -10 0 -15 -10 -15 -31 l0 -31 -26 31 c-40
48 -54 41 -54 -29z"/>
<path d="M1150 1165 c0 -8 7 -15 15 -15 11 0 15 -12 15 -45 0 -38 3 -45 20
-45 17 0 20 7 20 45 0 33 4 45 15 45 8 0 15 7 15 15 0 11 -12 15 -50 15 -38 0
-50 -4 -50 -15z"/>
<path d="M1290 1120 c0 -47 3 -60 15 -60 8 0 15 7 15 15 0 8 6 15 14 15 8 0
16 -7 20 -15 3 -8 15 -15 27 -15 18 0 19 3 9 15 -7 9 -9 23 -4 37 17 48 0 68
-58 68 l-38 0 0 -60z m70 15 c0 -8 -9 -15 -20 -15 -11 0 -20 7 -20 15 0 8 9
15 20 15 11 0 20 -7 20 -15z"/>
<path d="M1450 1160 c-11 -11 -20 -29 -20 -40 0 -28 35 -60 65 -60 30 0 65 32
65 60 0 28 -35 60 -65 60 -14 0 -34 -9 -45 -20z m65 -40 c0 -16 -6 -26 -18
-28 -19 -4 -32 20 -23 44 9 25 41 13 41 -16z"/>
<path d="M1670 1120 c0 -53 2 -60 20 -60 15 0 20 7 20 28 l1 27 22 -27 c13
-16 30 -28 40 -28 14 0 17 10 17 60 0 53 -2 60 -20 60 -16 0 -20 -7 -20 -32
l0 -33 -22 32 c-13 18 -31 33 -40 33 -15 0 -18 -9 -18 -60z"/>
<path d="M1866 1172 c-2 -4 -14 -31 -25 -60 -21 -52 -21 -52 -1 -52 11 0 20 5
20 10 0 14 36 13 60 -2 31 -20 34 -3 9 56 -15 38 -28 56 -40 56 -10 0 -20 -4
-23 -8z m28 -47 c3 -8 1 -15 -4 -15 -6 0 -10 7 -10 15 0 8 2 15 4 15 2 0 6 -7
10 -15z"/>
<path d="M2002 1164 c-27 -19 -29 -64 -4 -87 22 -20 65 -22 81 -4 14 18 3 28
-24 21 -26 -6 -48 16 -39 41 5 12 14 15 34 11 33 -6 44 2 29 21 -15 18 -49 17
-77 -3z"/>
<path d="M2130 1120 c0 -47 3 -60 15 -60 12 0 15 13 15 60 0 47 -3 60 -15 60
-12 0 -15 -13 -15 -60z"/>
<path d="M2220 1160 c-40 -40 -12 -100 47 -100 28 0 63 33 63 60 0 28 -35 60
-65 60 -14 0 -34 -9 -45 -20z m65 -40 c0 -16 -6 -26 -18 -28 -19 -4 -32 20
-23 44 9 25 41 13 41 -16z"/>
<path d="M2370 1120 c0 -47 3 -60 15 -60 10 0 15 10 15 33 l0 32 26 -32 c40
-51 54 -44 54 27 0 47 -3 60 -15 60 -10 0 -15 -10 -15 -32 l-1 -33 -27 33
c-40 48 -52 42 -52 -28z"/>
<path d="M2538 1120 c-25 -57 -25 -60 -7 -60 10 0 19 5 19 10 0 6 14 10 30 10
17 0 30 -4 30 -10 0 -5 9 -10 19 -10 19 0 19 2 -4 58 -32 80 -54 81 -87 2z
m52 0 c0 -5 -4 -10 -10 -10 -5 0 -10 5 -10 10 0 6 5 10 10 10 6 0 10 -4 10
-10z"/>
<path d="M2680 1120 l0 -60 45 0 c33 0 45 4 45 15 0 9 -9 15 -25 15 -23 0 -25
4 -25 45 0 38 -3 45 -20 45 -18 0 -20 -7 -20 -60z"/>
<path d="M2880 1120 l0 -60 50 0 c38 0 50 4 50 15 0 11 -11 15 -36 15 -21 0
-33 4 -29 10 3 6 17 10 31 10 13 0 24 5 24 10 0 6 -11 10 -24 10 -14 0 -28 5
-31 10 -4 6 8 10 29 10 25 0 36 4 36 15 0 11 -12 15 -50 15 l-50 0 0 -60z"/>
<path d="M3020 1120 c0 -47 3 -60 15 -60 10 0 15 10 15 33 l1 32 27 -33 c40
-48 52 -42 52 28 0 47 -3 60 -15 60 -10 0 -15 -10 -15 -32 l0 -33 -26 33 c-40
50 -54 43 -54 -28z"/>
<path d="M3260 1165 c-16 -20 -6 -43 25 -55 35 -13 32 -24 -5 -16 -22 4 -30 2
-30 -8 0 -26 66 -36 88 -14 20 20 14 37 -20 59 -32 20 -33 21 -6 16 16 -2 29
1 32 9 10 25 -63 34 -84 9z"/>
<path d="M3390 1120 c0 -47 3 -60 15 -60 12 0 15 13 15 60 0 47 -3 60 -15 60
-12 0 -15 -13 -15 -60z"/>
<path d="M3483 1174 c-7 -3 -13 -16 -13 -29 0 -17 8 -26 30 -34 39 -13 39 -25
0 -18 -32 7 -51 -10 -29 -24 22 -14 66 -10 83 6 20 21 10 43 -28 61 l-31 14
33 -5 c28 -4 33 -2 30 13 -3 17 -49 27 -75 16z"/>
<path d="M3590 1165 c0 -8 9 -15 20 -15 17 0 20 -7 20 -45 0 -33 4 -45 15 -45
11 0 15 12 15 45 0 38 3 45 20 45 11 0 20 7 20 15 0 12 -13 15 -55 15 -42 0
-55 -3 -55 -15z"/>
<path d="M3730 1120 l0 -60 50 0 c38 0 50 4 50 15 0 10 -10 15 -30 15 -16 0
-30 5 -30 10 0 6 14 10 30 10 17 0 30 5 30 10 0 6 -13 10 -30 10 -16 0 -30 5
-30 10 0 6 14 10 30 10 20 0 30 5 30 15 0 11 -12 15 -50 15 l-50 0 0 -60z"/>
<path d="M3870 1120 c0 -53 2 -60 20 -60 15 0 20 7 21 28 0 26 1 26 9 5 12
-30 26 -29 44 5 l15 27 1 -32 c0 -23 5 -33 15 -33 12 0 15 13 15 60 0 54 -2
60 -20 60 -14 0 -25 -11 -34 -32 l-14 -32 -16 32 c-10 20 -24 32 -36 32 -18 0
-20 -7 -20 -60z"/>
<path d="M4068 1123 c-22 -50 -23 -58 -10 -62 9 -2 18 2 20 8 5 14 49 15 57 1
3 -5 15 -10 25 -10 17 0 17 4 -7 60 -34 78 -52 79 -85 3z m52 -3 c0 -5 -4 -10
-10 -10 -5 0 -10 5 -10 10 0 6 5 10 10 10 6 0 10 -4 10 -10z"/>
<path d="M4220 1165 c-16 -20 -6 -43 25 -55 34 -13 32 -24 -5 -17 -35 7 -49
-8 -21 -22 28 -16 67 -13 81 4 16 20 6 43 -25 55 -32 12 -33 24 -1 18 15 -3
27 0 30 8 10 25 -63 34 -84 9z"/>
<path d="M2639 998 c-1 -7 -1 -16 0 -20 0 -5 -6 -8 -14 -8 -8 0 -22 -11 -31
-25 -33 -50 25 -109 81 -83 46 21 45 93 -1 104 -24 6 -24 7 -8 25 16 18 16 19
-4 19 -12 0 -23 -6 -23 -12z m28 -60 c12 -21 12 -36 -2 -48 -19 -16 -45 -1
-45 25 0 31 32 46 47 23z"/>
<path d="M1770 972 c-49 -16 -65 -66 -30 -97 39 -35 110 -10 110 40 0 34 -47
68 -80 57z m38 -63 c-2 -16 -10 -24 -23 -24 -27 0 -35 51 -8 57 25 6 35 -5 31
-33z"/>
<path d="M2410 972 c-49 -15 -65 -66 -30 -97 21 -19 66 -23 82 -7 16 16 0 34
-21 23 -24 -13 -43 2 -39 30 3 24 24 32 45 17 13 -10 27 7 19 21 -8 12 -38 19
-56 13z"/>
<path d="M3378 973 c-26 -7 -34 -44 -12 -60 10 -7 24 -13 31 -13 7 0 13 -4 13
-10 0 -13 -16 -13 -40 0 -13 7 -19 6 -24 -5 -6 -18 49 -35 79 -25 33 12 31 47
-4 65 -37 19 -40 30 -7 21 34 -8 43 12 11 24 -14 6 -27 9 -28 9 -1 -1 -10 -3
-19 -6z"/>
<path d="M990 914 l0 -55 47 3 c39 2 50 8 62 29 13 24 13 29 -2 53 -15 22 -25
26 -62 26 l-45 0 0 -56z m75 1 c0 -20 -6 -31 -17 -33 -15 -3 -18 4 -18 33 0
29 3 36 18 33 11 -2 17 -13 17 -33z"/>
<path d="M1140 915 l0 -55 50 0 c28 0 50 5 50 10 0 6 -13 10 -30 10 -16 0 -30
5 -30 10 0 6 14 10 30 10 20 0 30 5 30 15 0 10 -10 15 -30 15 -16 0 -30 5 -30
10 0 6 14 10 30 10 17 0 30 5 30 10 0 6 -22 10 -50 10 l-50 0 0 -55z"/>
<path d="M1360 915 c0 -48 2 -55 20 -55 18 0 20 7 20 55 0 48 -2 55 -20 55
-18 0 -20 -7 -20 -55z"/>
<path d="M1440 915 c0 -42 3 -55 15 -55 10 0 15 10 15 33 l0 32 26 -32 c39
-50 54 -44 54 22 0 42 -3 55 -15 55 -10 0 -15 -10 -15 -27 l-1 -28 -22 28
c-13 15 -30 27 -40 27 -14 0 -17 -10 -17 -55z"/>
<path d="M1600 915 c0 -42 3 -55 15 -55 8 0 15 9 15 20 0 16 7 20 30 20 37 0
40 18 3 22 -39 4 -42 28 -4 28 17 0 31 5 31 10 0 6 -20 10 -45 10 l-45 0 0
-55z"/>
<path d="M1890 916 c0 -43 3 -56 15 -56 8 0 15 7 15 15 0 8 5 15 10 15 6 0 13
-7 16 -15 4 -8 15 -15 25 -15 21 0 25 15 9 25 -8 5 -7 11 0 20 6 8 10 24 8 37
-3 20 -10 23 -50 26 l-48 3 0 -55z m65 14 c0 -22 -29 -18 -33 3 -3 14 1 18 15
15 10 -2 18 -10 18 -18z"/>
<path d="M2040 915 c0 -42 3 -55 15 -55 9 0 15 9 15 23 1 20 2 20 11 5 15 -26
34 -22 46 10 l11 27 1 -32 c1 -22 6 -33 16 -33 12 0 15 13 15 55 0 49 -2 55
-20 55 -12 0 -25 -10 -32 -25 -6 -14 -15 -25 -19 -25 -4 0 -10 11 -13 25 -4
16 -13 25 -26 25 -18 0 -20 -7 -20 -55z"/>
<path d="M2230 924 c-11 -26 -20 -49 -20 -53 0 -3 27 -6 60 -6 33 0 60 3 60 7
0 3 -9 27 -20 52 -26 62 -52 62 -80 0z m50 -15 c0 -5 -4 -9 -10 -9 -5 0 -10 7
-10 16 0 8 5 12 10 9 6 -3 10 -10 10 -16z"/>
<path d="M2510 915 c0 -42 3 -55 15 -55 12 0 15 13 15 55 0 42 -3 55 -15 55
-12 0 -15 -13 -15 -55z"/>
<path d="M2750 915 c0 -42 3 -55 15 -55 10 0 15 10 15 31 l0 31 26 -31 c40
-47 54 -41 54 24 0 42 -3 55 -15 55 -10 0 -15 -10 -15 -32 l0 -33 -22 32 c-13
18 -31 33 -40 33 -15 0 -18 -9 -18 -55z"/>
<path d="M2980 910 l0 -60 50 0 c38 0 50 4 50 15 0 10 -11 15 -35 15 -19 0
-35 5 -35 10 0 6 14 10 30 10 20 0 30 5 30 15 0 10 -10 15 -31 15 -17 0 -28 4
-24 10 3 6 19 10 36 10 16 0 29 5 29 10 0 6 -22 10 -50 10 l-50 0 0 -60z"/>
<path d="M3120 910 c0 -47 3 -60 15 -60 11 0 15 11 15 37 l0 38 27 -38 c39
-55 53 -49 53 23 0 47 -3 60 -15 60 -10 0 -15 -10 -15 -32 l0 -33 -22 32 c-13
18 -31 33 -40 33 -15 0 -18 -9 -18 -60z"/>
<path d="M3505 928 c-9 -24 -19 -48 -21 -54 -3 -6 18 -10 60 -10 l65 0 -16 35
c-8 20 -17 44 -20 54 -3 10 -15 17 -28 17 -17 0 -27 -10 -40 -42z m44 -27
c-15 -5 -22 6 -14 19 6 9 10 9 16 -1 5 -8 4 -15 -2 -18z"/>
<path d="M3640 915 l0 -55 45 0 c25 0 45 5 45 10 0 6 -11 10 -25 10 -23 0 -25
4 -25 45 0 38 -3 45 -20 45 -18 0 -20 -7 -20 -55z"/>
<path d="M3763 924 c6 -55 16 -67 58 -67 40 0 59 24 59 75 0 31 -4 38 -19 38
-16 0 -20 -8 -23 -42 -2 -30 -8 -43 -18 -43 -10 0 -16 13 -18 43 -3 35 -7 42
-24 42 -19 0 -20 -4 -15 -46z"/>
<path d="M3920 915 l0 -55 44 0 c49 0 69 16 69 55 0 39 -20 55 -69 55 l-44 0
0 -55z m74 12 c8 -12 7 -21 -6 -33 -20 -20 -38 -11 -38 20 0 39 23 46 44 13z"/>
</g>
</svg>
